<svg xmlns="http://www.w3.org/2000/svg" viewBox="0 0 700 245" width="700" height="245" preserveAspectRatio="xMidYMid meet" style="width: 100%; height: 100%; transform: translate3d(0px, 0px, 0px);" class="">
    <defs><clipPath id="__lottie_element_78"><path width="700" height="245" d="M0 0 L700 0 L700 245 L0 245 Z" class="OQlOCXIh_0"></path></clipPath><mask id="__lottie_element_86" mask-type="alpha"><g transform="matrix(1,0,0,1,350,-66.02900695800781)" opacity="1" style="display: block;"><g opacity="1" transform="matrix(1,0,0,1,0,0)"><path stroke-linecap="round" stroke-linejoin="miter" fill-opacity="0" stroke-miterlimit="4" stroke="rgb(130,255,0)" stroke-opacity="1" stroke-width="3" d="M0 0" class="OQlOCXIh_1"></path></g><g opacity="1" transform="matrix(1,0,0,1,0,0)"><path stroke-linecap="round" stroke-linejoin="miter" fill-opacity="0" stroke-miterlimit="4" stroke="rgb(130,255,0)" stroke-opacity="1" stroke-width="3" d="M0 0" class="OQlOCXIh_2"></path></g><g opacity="1" transform="matrix(1,0,0,1,0,0)"><path stroke-linecap="round" stroke-linejoin="miter" fill-opacity="0" stroke-miterlimit="4" stroke="rgb(130,255,0)" stroke-opacity="1" stroke-width="3" d="M0 0" class="OQlOCXIh_3"></path></g><g opacity="1" transform="matrix(1,0,0,1,0,0)"><path stroke-linecap="round" stroke-linejoin="miter" fill-opacity="0" stroke-miterlimit="4" stroke="rgb(130,255,0)" stroke-opacity="1" stroke-width="3" d="M0 0" class="OQlOCXIh_4"></path></g><g opacity="1" transform="matrix(1,0,0,1,0,0)"><path stroke-linecap="round" stroke-linejoin="miter" fill-opacity="0" stroke-miterlimit="4" stroke="rgb(130,255,0)" stroke-opacity="1" stroke-width="3" d="M0 0" class="OQlOCXIh_5"></path></g></g></mask><mask id="__lottie_element_92" mask-type="alpha"><g clip-path="url(#__lottie_element_93)" transform="matrix(0.9100000262260437,0,0,0.9100000262260437,349,110.5)" opacity="1" style="display: block;"><g opacity="1" transform="matrix(1,0,0,1,0,0)"><path fill="rgb(255,0,0)" fill-opacity="1" d=" M960,-540 C960,-540 960,540 960,540 C960,540 -960,540 -960,540 C-960,540 -960,-540 -960,-540 C-960,-540 960,-540 960,-540z" class="OQlOCXIh_6"></path></g></g></mask><clipPath id="__lottie_element_93"><path fill="#ffffff" clip-rule="nonzero" d=" M-34.356998443603516,-90.08300018310547 C-34.356998443603516,-90.08300018310547 -163.822998046875,-90.08300018310547 -163.822998046875,-90.08300018310547 C-163.822998046875,-90.08300018310547 -203.7010040283203,111.48999786376953 -203.7010040283203,111.48999786376953 C-203.7010040283203,111.48999786376953 -71.50399780273438,111.48999786376953 -71.50399780273438,111.48999786376953 C-71.50399780273438,111.48999786376953 -60.03200149536133,67.24199676513672 -60.03200149536133,67.24199676513672 C-60.03200149536133,67.24199676513672 -139.78700256347656,67.24199676513672 -139.78700256347656,67.24199676513672 C-139.78700256347656,67.24199676513672 -116.84400177001953,-42.55799865722656 -116.84400177001953,-42.55799865722656 C-116.84400177001953,-42.55799865722656 -45.82899856567383,-42.55799865722656 -45.82899856567383,-42.55799865722656 C-45.82899856567383,-42.55799865722656 -34.356998443603516,-90.08300018310547 -34.356998443603516,-90.08300018310547" fill-opacity="1" class="OQlOCXIh_7"></path></clipPath><linearGradient id="__lottie_element_98" spreadMethod="pad" gradientUnits="userSpaceOnUse" x1="0" y1="-100" x2="0" y2="100"><stop offset="0%" stop-color="rgb(235,203,122)"></stop><stop offset="33%" stop-color="rgb(209,174,96)"></stop><stop offset="66%" stop-color="rgb(183,146,69)"></stop></linearGradient><linearGradient id="__lottie_element_99" spreadMethod="pad" gradientUnits="userSpaceOnUse" x1="38.987998962402344" y1="-19.753999710083008" x2="-37.76100158691406" y2="21.757999420166016"><stop offset="0%" stop-color="rgb(235,203,122)"></stop><stop offset="33%" stop-color="rgb(209,174,96)"></stop><stop offset="66%" stop-color="rgb(183,146,69)"></stop></linearGradient><mask id="__lottie_element_100" mask-type="alpha"><g transform="matrix(1.0266799926757812,0,0,1.0266799926757812,350.0950012207031,6.672000885009766)" opacity="1" style="display: block;"><g opacity="1" transform="matrix(1,0,0,1,0,0)"><path stroke-linecap="butt" stroke-linejoin="miter" fill-opacity="0" stroke-miterlimit="4" stroke="rgb(255,255,255)" stroke-opacity="1" stroke-width="50" d=" M-304.75,21.25 C-304.75,21.25 -290.125,206.25 -290.125,206.25 C-290.125,206.25 -182.25,12.5 -182.25,12.5" class="OQlOCXIh_8"></path></g><g opacity="1" transform="matrix(1,0,0,1,0,0)"><path stroke-linecap="butt" stroke-linejoin="miter" fill-opacity="0" stroke-miterlimit="4" stroke="rgb(255,255,255)" stroke-opacity="1" stroke-width="50" d=" M306.75,18 C306.75,18 267.5,210 267.5,210 C267.5,210 306.75,18 306.75,18z" class="OQlOCXIh_9"></path></g><g opacity="1" transform="matrix(1,0,0,1,-1.5,0)"><path stroke-linecap="butt" stroke-linejoin="miter" fill-opacity="0" stroke-miterlimit="4" stroke="rgb(255,255,255)" stroke-opacity="1" stroke-width="40" d=" M-111.04499816894531,112.4739990234375 C-111.04499816894531,112.4739990234375 -47.064998626708984,111.6709976196289 -47.064998626708984,111.6709976196289" class="OQlOCXIh_10"></path></g><g opacity="1" transform="matrix(1,0,0,1,0,0)"><path stroke-linecap="butt" stroke-linejoin="miter" fill-opacity="0" stroke-miterlimit="4" stroke="rgb(255,255,255)" stroke-opacity="1" stroke-width="50" d=" M-28.25,169.5 C-28.25,169.5 36.051998138427734,202.4409942626953 59.5,172.5 C92,131 44.25,112 44.25,112 C44.25,112 2,93.5 13.5,58.25 C27.312000274658203,15.911999702453613 102.5,50 102.5,50" class="OQlOCXIh_11"></path></g><g opacity="1" transform="matrix(1,0,0,1,-0.5,0)"><path stroke-linecap="butt" stroke-linejoin="miter" fill-opacity="0" stroke-miterlimit="4" stroke="rgb(255,255,255)" stroke-opacity="1" stroke-width="42" d=" M200.7760009765625,2 C200.7760009765625,2 155.75,203.5 155.75,203.5 C155.75,203.5 200.7760009765625,2 200.7760009765625,2z" class="OQlOCXIh_12"></path></g><g opacity="1" transform="matrix(1,0,0,1,2.5,0)"><path stroke-linecap="butt" stroke-linejoin="miter" fill-opacity="0" stroke-miterlimit="4" stroke="rgb(255,255,255)" stroke-opacity="1" stroke-width="50" d=" M121.5,43 C121.5,43 262,43 262,43 C262,43 195,43 195,43 C195,43 121.5,43 121.5,43z" class="OQlOCXIh_13"></path></g></g></mask><linearGradient id="__lottie_element_106" spreadMethod="pad" gradientUnits="userSpaceOnUse" x1="38.987998962402344" y1="-19.753999710083008" x2="-37.76100158691406" y2="21.757999420166016"><stop offset="0%" stop-color="rgb(235,203,122)"></stop><stop offset="33%" stop-color="rgb(209,174,96)"></stop><stop offset="66%" stop-color="rgb(183,146,69)"></stop></linearGradient><linearGradient id="__lottie_element_107" spreadMethod="pad" gradientUnits="userSpaceOnUse" x1="0" y1="-100" x2="0" y2="100"><stop offset="0%" stop-color="rgb(235,203,122)"></stop><stop offset="33%" stop-color="rgb(209,174,96)"></stop><stop offset="66%" stop-color="rgb(183,146,69)"></stop></linearGradient><linearGradient id="__lottie_element_108" spreadMethod="pad" gradientUnits="userSpaceOnUse" x1="38.987998962402344" y1="-19.753999710083008" x2="-37.76100158691406" y2="21.757999420166016"><stop offset="0%" stop-color="rgb(235,203,122)"></stop><stop offset="33%" stop-color="rgb(209,174,96)"></stop><stop offset="66%" stop-color="rgb(183,146,69)"></stop></linearGradient><linearGradient id="__lottie_element_109" spreadMethod="pad" gradientUnits="userSpaceOnUse" x1="0" y1="-100" x2="0" y2="100"><stop offset="0%" stop-color="rgb(235,203,122)"></stop><stop offset="33%" stop-color="rgb(209,174,96)"></stop><stop offset="66%" stop-color="rgb(183,146,69)"></stop></linearGradient><linearGradient id="__lottie_element_110" spreadMethod="pad" gradientUnits="userSpaceOnUse" x1="0" y1="-100" x2="0" y2="100"><stop offset="0%" stop-color="rgb(235,203,122)"></stop><stop offset="33%" stop-color="rgb(209,174,96)"></stop><stop offset="66%" stop-color="rgb(183,146,69)"></stop></linearGradient><linearGradient id="__lottie_element_111" spreadMethod="pad" gradientUnits="userSpaceOnUse" x1="0" y1="-100" x2="0" y2="100"><stop offset="0%" stop-color="rgb(235,203,122)"></stop><stop offset="33%" stop-color="rgb(209,174,96)"></stop><stop offset="66%" stop-color="rgb(183,146,69)"></stop></linearGradient></defs><g clip-path="url(#__lottie_element_78)"><g mask="url(#__lottie_element_100)" style="display: block;"><g class="ai" transform="matrix(0.9153000116348267,0,0,0.9153000116348267,-34.4366455078125,-161.378173828125)" opacity="1"><g opacity="1" transform="matrix(1,0,0,1,328.51800537109375,304.70098876953125)"><path fill="url(#__lottie_element_106)" fill-opacity="1" d=" M5.414000034332275,-18.69499969482422 C0.8230000138282776,-18.69499969482422 -3.4709999561309814,-17.674999237060547 -7.35099983215332,-15.663999557495117 C-10.902000427246094,-13.821999549865723 -14.1899995803833,-11.430000305175781 -17.12700080871582,-8.552000045776367 C-19.933000564575195,-5.803999900817871 -22.479000091552734,-2.7360000610351562 -24.691999435424805,0.5640000104904175 C-26.80699920654297,3.7149999141693115 -28.62299919128418,6.734000205993652 -30.090999603271484,9.53499984741211 C-30.090999603271484,9.53499984741211 -34.71900177001953,18.3700008392334 -34.71900177001953,18.3700008392334 C-34.71900177001953,18.3700008392334 -24.746000289916992,18.422000885009766 -24.746000289916992,18.422000885009766 C-24.746000289916992,18.422000885009766 21.7810001373291,18.670000076293945 21.7810001373291,18.670000076293945 C21.7810001373291,18.670000076293945 26.70599937438965,18.69499969482422 26.70599937438965,18.69499969482422 C26.70599937438965,18.69499969482422 27.746000289916992,13.881999969482422 27.746000289916992,13.881999969482422 C27.746000289916992,13.881999969482422 33.145999908447266,-11.095000267028809 33.145999908447266,-11.095000267028809 C33.145999908447266,-11.095000267028809 34.71799850463867,-18.36400032043457 34.71799850463867,-18.36400032043457 C34.71799850463867,-18.36400032043457 27.283000946044922,-18.447999954223633 27.283000946044922,-18.447999954223633 C27.283000946044922,-18.447999954223633 5.484000205993652,-18.694000244140625 5.484000205993652,-18.694000244140625 C5.484000205993652,-18.694000244140625 5.448999881744385,-18.69499969482422 5.448999881744385,-18.69499969482422 C5.448999881744385,-18.69499969482422 5.414000034332275,-18.69499969482422 5.414000034332275,-18.69499969482422z" class="OQlOCXIh_14"></path></g><g opacity="1" transform="matrix(1,0,0,1,143.6820068359375,309.01800537109375)"><path fill="url(#__lottie_element_107)" fill-opacity="1" d=" M89.6500015258789,-95.96199798583984 C89.6500015258789,-95.96199798583984 79.31400299072266,-95.96199798583984 79.31400299072266,-95.96199798583984 C79.31400299072266,-95.96199798583984 42.96099853515625,-95.96199798583984 42.96099853515625,-95.96199798583984 C42.96099853515625,-95.96199798583984 39.27299880981445,-95.96199798583984 39.27299880981445,-95.96199798583984 C39.27299880981445,-95.96199798583984 37.57400131225586,-92.69100189208984 37.57400131225586,-92.69100189208984 C37.57400131225586,-92.69100189208984 -26.948999404907227,31.466999053955078 -26.948999404907227,31.466999053955078 C-26.948999404907227,31.466999053955078 -39.034000396728516,-90.49099731445312 -39.034000396728516,-90.49099731445312 C-39.034000396728516,-90.49099731445312 -39.57699966430664,-95.96199798583984 -39.57699966430664,-95.96199798583984 C-39.57699966430664,-95.96199798583984 -45.07600021362305,-95.96199798583984 -45.07600021362305,-95.96199798583984 C-45.07600021362305,-95.96199798583984 -82.66500091552734,-95.96199798583984 -82.66500091552734,-95.96199798583984 C-82.66500091552734,-95.96199798583984 -89.6500015258789,-95.96199798583984 -89.6500015258789,-95.96199798583984 C-89.6500015258789,-95.96199798583984 -88.6760025024414,-89.04499816894531 -88.6760025024414,-89.04499816894531 C-88.6760025024414,-89.04499816894531 -63.354000091552734,90.73699951171875 -63.354000091552734,90.73699951171875 C-63.354000091552734,90.73699951171875 -62.617000579833984,95.96099853515625 -62.617000579833984,95.96099853515625 C-62.617000579833984,95.96099853515625 -57.34199905395508,95.96099853515625 -57.34199905395508,95.96099853515625 C-57.34199905395508,95.96099853515625 -20.992000579833984,95.96099853515625 -20.992000579833984,95.96099853515625 C-20.992000579833984,95.96099853515625 -17.42799949645996,95.96099853515625 -17.42799949645996,95.96099853515625 C-17.42799949645996,95.96099853515625 -15.690999984741211,92.8479995727539 -15.690999984741211,92.8479995727539 C-15.690999984741211,92.8479995727539 84.61399841308594,-86.93399810791016 84.61399841308594,-86.93399810791016 C84.61399841308594,-86.93399810791016 89.6500015258789,-95.96199798583984 89.6500015258789,-95.96199798583984z" class="OQlOCXIh_15"></path></g><g opacity="1" transform="matrix(1,0,0,1,328.51800537109375,304.70098876953125)"><path fill="url(#__lottie_element_108)" fill-opacity="1" d="M0 0" class="OQlOCXIh_16"></path></g><g opacity="1" transform="matrix(1,0,0,1,458.4219970703125,309.01800537109375)"><path fill="url(#__lottie_element_109)" fill-opacity="1" d=" M-0.3970000147819519,-96.11900329589844 C-7.9029998779296875,-94.06300354003906 -14.892999649047852,-90.93000030517578 -21.173999786376953,-86.80599975585938 C-27.57699966430664,-82.59700012207031 -33.1349983215332,-77.1500015258789 -37.696998596191406,-70.61699676513672 C-42.29399871826172,-64.03600311279297 -45.56700134277344,-56.21500015258789 -47.42399978637695,-47.36800003051758 C-49.619998931884766,-37.25899887084961 -49.040000915527344,-28.29800033569336 -45.691001892089844,-20.777000427246094 C-42.540000915527344,-13.687000274658203 -37.99700164794922,-7.426000118255615 -32.1879997253418,-2.174999952316284 C-26.676000595092773,2.815999984741211 -20.382999420166016,7.289000034332275 -13.48799991607666,11.116999626159668 C-7.1479997634887695,14.644000053405762 -1.2619999647140503,18.250999450683594 3.999000072479248,21.833999633789062 C8.847000122070312,25.13599967956543 12.704000473022461,28.69700050354004 15.460000038146973,32.42100143432617 C17.610000610351562,35.33100128173828 18.216999053955078,38.68299865722656 17.368999481201172,42.9640007019043 C16.910999298095703,45.39699935913086 15.930999755859375,47.55099868774414 14.36299991607666,49.608001708984375 C12.62600040435791,51.87699890136719 10.428000450134277,53.92499923706055 7.830999851226807,55.689998626708984 C5.181000232696533,57.48899841308594 2.1510000228881836,58.9370002746582 -1.1770000457763672,59.99399948120117 C-4.466000080108643,61.03499984741211 -8.064000129699707,61.56399917602539 -11.868000030517578,61.56399917602539 C-17.701000213623047,61.56399917602539 -24.246000289916992,60.816001892089844 -31.32200050354004,59.34199905395508 C-38.2599983215332,57.900001525878906 -45.56700134277344,55.14400100708008 -53.04399871826172,51.1510009765625 C-53.04399871826172,51.1510009765625 -58.08300018310547,48.45899963378906 -58.08300018310547,48.45899963378906 C-58.08300018310547,48.45899963378906 -61.07600021362305,53.327999114990234 -61.07600021362305,53.327999114990234 C-61.07600021362305,53.327999114990234 -75.2040023803711,76.3270034790039 -75.2040023803711,76.3270034790039 C-75.2040023803711,76.3270034790039 -78.63200378417969,81.90499877929688 -78.63200378417969,81.90499877929688 C-78.63200378417969,81.90499877929688 -72.81099700927734,84.9010009765625 -72.81099700927734,84.9010009765625 C-62.12300109863281,90.40299987792969 -51.94599914550781,94.20500183105469 -42.560001373291016,96.20099639892578 C-33.2760009765625,98.17500305175781 -24.781999588012695,99.1760025024414 -17.312000274658203,99.1760025024414 C-7.421000003814697,99.1760025024414 1.9910000562667847,97.98100280761719 10.66100025177002,95.62300109863281 C19.420000076293945,93.24400329589844 27.395999908447266,89.74199676513672 34.3650016784668,85.21399688720703 C41.45800018310547,80.60099792480469 47.46699905395508,74.81800079345703 52.22700119018555,68.0260009765625 C57.012001037597656,61.202999114990234 60.37300109863281,53.340999603271484 62.21699905395508,44.65999984741211 C64.4520034790039,33.90700149536133 63.9379997253418,24.47800064086914 60.69499969482422,16.604999542236328 C57.59199905395508,9.088000297546387 53.0989990234375,2.4830000400543213 47.3390007019043,-3.0269999504089355 C41.85599899291992,-8.270000457763672 35.57600021362305,-12.965999603271484 28.677000045776367,-16.992000579833984 C22.298999786376953,-20.702999114990234 16.365999221801758,-24.381000518798828 11.03499984741211,-27.929000854492188 C6.138000011444092,-31.18199920654297 2.2100000381469727,-34.659000396728516 -0.6470000147819519,-38.26599884033203 C-2.7929999828338623,-40.972999572753906 -3.4240000247955322,-44.02299880981445 -2.634999990463257,-47.86899948120117 C-1.8020000457763672,-51.93299865722656 0.49799999594688416,-55.23400115966797 4.3979997634887695,-57.9640007019043 C8.571999549865723,-60.88600158691406 13.614999771118164,-62.30699920654297 19.815000534057617,-62.30699920654297 C24.905000686645508,-62.30699920654297 30.25,-61.874000549316406 35.696998596191406,-61.02000045776367 C41.14799880981445,-60.1619987487793 47.25699996948242,-58.68899917602539 53.85200119018555,-56.64500045776367 C53.85200119018555,-56.64500045776367 58.35200119018555,-55.25 58.35200119018555,-55.25 C58.35200119018555,-55.25 60.81999969482422,-59.26300048828125 60.81999969482422,-59.26300048828125 C60.81999969482422,-59.26300048828125 74.65699768066406,-81.76599884033203 74.65699768066406,-81.76599884033203 C74.65699768066406,-81.76599884033203 78.63099670410156,-88.22799682617188 78.63099670410156,-88.22799682617188 C78.63099670410156,-88.22799682617188 71.45600128173828,-90.68800354003906 71.45600128173828,-90.68800354003906 C66.56500244140625,-92.36499786376953 61.9739990234375,-93.77899932861328 57.810001373291016,-94.89099884033203 C53.61000061035156,-96.00700378417969 49.47700119018555,-96.88500213623047 45.520999908447266,-97.49800109863281 C41.599998474121094,-98.0999984741211 37.768001556396484,-98.53399658203125 34.11800003051758,-98.79100036621094 C30.45599937438965,-99.0469970703125 26.621000289916992,-99.177001953125 22.7189998626709,-99.177001953125 C14.802000045776367,-99.177001953125 7.026000022888184,-98.14800262451172 -0.3970000147819519,-96.11900329589844z" class="OQlOCXIh_17">
    </path></g><g opacity="1" transform="matrix(1,0,0,1,634.5159912109375,309.01800537109375)"><path fill="url(#__lottie_element_110)" fill-opacity="1" d=" M67.37799835205078,-95.96199798583984 C67.37799835205078,-95.96199798583984 19.360000610351562,-95.96199798583984 19.360000610351562,-95.96199798583984 C19.360000610351562,-95.96199798583984 6.118000030517578,-95.96199798583984 6.118000030517578,-95.96199798583984 C6.118000030517578,-95.96199798583984 -61.95500183105469,-95.96199798583984 -61.95500183105469,-95.96199798583984 C-61.95500183105469,-95.96199798583984 -66.86399841308594,-95.96199798583984 -66.86399841308594,-95.96199798583984 C-66.86399841308594,-95.96199798583984 -67.89099884033203,-91.16100311279297 -67.89099884033203,-91.16100311279297 C-67.89099884033203,-91.16100311279297 -73.33499908447266,-65.69000244140625 -73.33499908447266,-65.69000244140625 C-73.33499908447266,-65.69000244140625 -74.9020004272461,-58.349998474121094 -74.9020004272461,-58.349998474121094 C-74.9020004272461,-58.349998474121094 -67.39800262451172,-58.349998474121094 -67.39800262451172,-58.349998474121094 C-67.39800262451172,-58.349998474121094 -27.885000228881836,-58.349998474121094 -27.885000228881836,-58.349998474121094 C-27.885000228881836,-58.349998474121094 -58.64699935913086,88.64700317382812 -58.64699935913086,88.64700317382812 C-58.64699935913086,88.64700317382812 -60.17900085449219,95.96099853515625 -60.17900085449219,95.96099853515625 C-60.17900085449219,95.96099853515625 -52.70600128173828,95.96099853515625 -52.70600128173828,95.96099853515625 C-52.70600128173828,95.96099853515625 -17.590999603271484,95.96099853515625 -17.590999603271484,95.96099853515625 C-17.590999603271484,95.96099853515625 -12.659000396728516,95.96099853515625 -12.659000396728516,95.96099853515625 C-12.659000396728516,95.96099853515625 -11.64900016784668,91.13400268554688 -11.64900016784668,91.13400268554688 C-11.64900016784668,91.13400268554688 19.635000228881836,-58.349998474121094 19.635000228881836,-58.349998474121094 C19.635000228881836,-58.349998474121094 61.86899948120117,-58.349998474121094 61.86899948120117,-58.349998474121094 C61.86899948120117,-58.349998474121094 66.76599884033203,-58.349998474121094 66.76599884033203,-58.349998474121094 C66.76599884033203,-58.349998474121094 67.802001953125,-63.137001037597656 67.802001953125,-63.137001037597656 C67.802001953125,-63.137001037597656 73.31199645996094,-88.60800170898438 73.31199645996094,-88.60800170898438 C73.31199645996094,-88.60800170898438 74.9020004272461,-95.96199798583984 74.9020004272461,-95.96199798583984 C74.9020004272461,-95.96199798583984 67.37799835205078,-95.96199798583984 67.37799835205078,-95.96199798583984z" class="OQlOCXIh_18"></path></g><g opacity="1" transform="matrix(1,0,0,1,742.22900390625,309.01800537109375)"><path fill="url(#__lottie_element_111)" fill-opacity="1" d=" M36.05699920654297,-95.96199798583984 C36.05699920654297,-95.96199798583984 1.6820000410079956,-95.96199798583984 1.6820000410079956,-95.96199798583984 C1.6820000410079956,-95.96199798583984 -3.246999979019165,-95.96199798583984 -3.246999979019165,-95.96199798583984 C-3.246999979019165,-95.96199798583984 -4.260000228881836,-91.13899993896484 -4.260000228881836,-91.13899993896484 C-4.260000228881836,-91.13899993896484 -41.99700164794922,88.64299774169922 -41.99700164794922,88.64299774169922 C-41.99700164794922,88.64299774169922 -43.534000396728516,95.96099853515625 -43.534000396728516,95.96099853515625 C-43.534000396728516,95.96099853515625 -36.05699920654297,95.96099853515625 -36.05699920654297,95.96099853515625 C-36.05699920654297,95.96099853515625 -1.6820000410079956,95.96099853515625 -1.6820000410079956,95.96099853515625 C-1.6820000410079956,95.96099853515625 3.244999885559082,95.96099853515625 3.244999885559082,95.96099853515625 C3.244999885559082,95.96099853515625 4.257999897003174,91.13800048828125 4.257999897003174,91.13800048828125 C4.257999897003174,91.13800048828125 41.99700164794922,-88.6449966430664 41.99700164794922,-88.6449966430664 C41.99700164794922,-88.6449966430664 43.534000396728516,-95.96199798583984 43.534000396728516,-95.96199798583984 C43.534000396728516,-95.96199798583984 36.05699920654297,-95.96199798583984 36.05699920654297,-95.96199798583984z" class="OQlOCXIh_19"></path></g></g></g><g mask="url(#__lottie_element_92)" style="display: block;"><g class="ai" transform="matrix(0.9153000116348267,0,0,0.9153000116348267,-34.4366455078125,-161.378173828125)" opacity="1"><g opacity="1" transform="matrix(1,0,0,1,300.83099365234375,309.01800537109375)"><path fill="url(#__lottie_element_98)" fill-opacity="1" d=" M-35.055999755859375,-95.96199798583984 C-35.055999755859375,-95.96199798583984 -39.98400115966797,-95.96199798583984 -39.98400115966797,-95.96199798583984 C-39.98400115966797,-95.96199798583984 -40.99599838256836,-91.13899993896484 -40.99599838256836,-91.13899993896484 C-40.99599838256836,-91.13899993896484 -78.73500061035156,88.64399719238281 -78.73500061035156,88.64399719238281 C-78.73500061035156,88.64399719238281 -80.27100372314453,95.96099853515625 -80.27100372314453,95.96099853515625 C-80.27100372314453,95.96099853515625 -72.79399871826172,95.96099853515625 -72.79399871826172,95.96099853515625 C-72.79399871826172,95.96099853515625 38.983001708984375,95.96099853515625 38.983001708984375,95.96099853515625 C38.983001708984375,95.96099853515625 43.939998626708984,95.96099853515625 43.939998626708984,95.96099853515625 C43.939998626708984,95.96099853515625 44.93199920654297,91.10299682617188 44.93199920654297,91.10299682617188 C44.93199920654297,91.10299682617188 50.12799835205078,65.63300323486328 50.12799835205078,65.63300323486328 C50.12799835205078,65.63300323486328 51.612998962402344,58.3489990234375 51.612998962402344,58.3489990234375 C51.612998962402344,58.3489990234375 44.18000030517578,58.3489990234375 44.18000030517578,58.3489990234375 C44.18000030517578,58.3489990234375 -24.7549991607666,58.3489990234375 -24.7549991607666,58.3489990234375 C-24.7549991607666,58.3489990234375 -0.210999995470047,-58.35100173950195 -0.210999995470047,-58.35100173950195 C-0.210999995470047,-58.35100173950195 67.322998046875,-58.35100173950195 67.322998046875,-58.35100173950195 C67.322998046875,-58.35100173950195 72.23200225830078,-58.35100173950195 72.23200225830078,-58.35100173950195 C72.23200225830078,-58.35100173950195 73.25800323486328,-63.152000427246094 73.25800323486328,-63.152000427246094 C73.25800323486328,-63.152000427246094 78.7020034790039,-88.62300109863281 78.7020034790039,-88.62300109863281 C78.7020034790039,-88.62300109863281 80.27100372314453,-95.96199798583984 80.27100372314453,-95.96199798583984 C80.27100372314453,-95.96199798583984 72.76599884033203,-95.96199798583984 72.76599884033203,-95.96199798583984 C72.76599884033203,-95.96199798583984 -35.055999755859375,-95.96199798583984 -35.055999755859375,-95.96199798583984z" class="OQlOCXIh_20"></path></g><g opacity="1" transform="matrix(1,0,0,1,328.51800537109375,304.70098876953125)"><path fill="url(#__lottie_element_99)" fill-opacity="1" d=" M5.414000034332275,-18.69499969482422 C0.8230000138282776,-18.69499969482422 -3.4709999561309814,-17.674999237060547 -7.35099983215332,-15.663999557495117 C-10.902000427246094,-13.821999549865723 -14.1899995803833,-11.430000305175781 -17.12700080871582,-8.552000045776367 C-19.933000564575195,-5.803999900817871 -22.479000091552734,-2.7360000610351562 -24.691999435424805,0.5640000104904175 C-26.80699920654297,3.7149999141693115 -28.62299919128418,6.734000205993652 -30.090999603271484,9.53499984741211 C-30.090999603271484,9.53499984741211 -34.71900177001953,18.3700008392334 -34.71900177001953,18.3700008392334 C-34.71900177001953,18.3700008392334 -24.746000289916992,18.422000885009766 -24.746000289916992,18.422000885009766 C-24.746000289916992,18.422000885009766 21.7810001373291,18.670000076293945 21.7810001373291,18.670000076293945 C21.7810001373291,18.670000076293945 26.70599937438965,18.69499969482422 26.70599937438965,18.69499969482422 C26.70599937438965,18.69499969482422 27.746000289916992,13.881999969482422 27.746000289916992,13.881999969482422 C27.746000289916992,13.881999969482422 33.145999908447266,-11.095000267028809 33.145999908447266,-11.095000267028809 C33.145999908447266,-11.095000267028809 34.71799850463867,-18.36400032043457 34.71799850463867,-18.36400032043457 C34.71799850463867,-18.36400032043457 27.283000946044922,-18.447999954223633 27.283000946044922,-18.447999954223633 C27.283000946044922,-18.447999954223633 5.484000205993652,-18.694000244140625 5.484000205993652,-18.694000244140625 C5.484000205993652,-18.694000244140625 5.448999881744385,-18.69499969482422 5.448999881744385,-18.69499969482422 C5.448999881744385,-18.69499969482422 5.414000034332275,-18.69499969482422 5.414000034332275,-18.69499969482422z" class="OQlOCXIh_21"></path></g></g></g><g mask="url(#__lottie_element_86)" style="display: block;"><g transform="matrix(1,0,0,1,350,-66.02900695800781)" opacity="1"><g opacity="1" transform="matrix(1,0,0,1,0,0)"><path stroke-linecap="round" stroke-linejoin="miter" fill-opacity="0" stroke-miterlimit="4" stroke="rgb(130,255,0)" stroke-opacity="1" stroke-width="3" d="M0 0" class="OQlOCXIh_22"></path></g><g opacity="1" transform="matrix(1,0,0,1,0,0)"><path stroke-linecap="round" stroke-linejoin="miter" fill-opacity="0" stroke-miterlimit="4" stroke="rgb(130,255,0)" stroke-opacity="1" stroke-width="3" d="M0 0" class="OQlOCXIh_23"></path></g><g opacity="1" transform="matrix(1,0,0,1,0,0)"><path stroke-linecap="round" stroke-linejoin="miter" fill-opacity="0" stroke-miterlimit="4" stroke="rgb(130,255,0)" stroke-opacity="1" stroke-width="3" d="M0 0" class="OQlOCXIh_24"></path></g><g opacity="1" transform="matrix(1,0,0,1,0,0)"><path stroke-linecap="round" stroke-linejoin="miter" fill-opacity="0" stroke-miterlimit="4" stroke="rgb(130,255,0)" stroke-opacity="1" stroke-width="3" d="M0 0" class="OQlOCXIh_25"></path></g><g opacity="1" transform="matrix(1,0,0,1,0,0)"><path stroke-linecap="round" stroke-linejoin="miter" fill-opacity="0" stroke-miterlimit="4" stroke="rgb(130,255,0)" stroke-opacity="1" stroke-width="3" d="M0 0" class="OQlOCXIh_26"></path></g></g></g><g transform="matrix(1,0,0,1,350,-66.02900695800781)" opacity="0.5" style="display: block;"><g opacity="1" transform="matrix(1,0,0,1,0,0)"><path stroke-linecap="round" stroke-linejoin="miter" fill-opacity="0" stroke-miterlimit="4" stroke="rgb(231,255,206)" stroke-opacity="1" stroke-width="0.5" d="M0 0" class="OQlOCXIh_27"></path></g><g opacity="1" transform="matrix(1,0,0,1,0,0)"><path stroke-linecap="round" stroke-linejoin="miter" fill-opacity="0" stroke-miterlimit="4" stroke="rgb(231,255,206)" stroke-opacity="1" stroke-width="0.5" d="M0 0" class="OQlOCXIh_28"></path></g><g opacity="1" transform="matrix(1,0,0,1,0,0)"><path stroke-linecap="round" stroke-linejoin="miter" fill-opacity="0" stroke-miterlimit="4" stroke="rgb(231,255,206)" stroke-opacity="1" stroke-width="0.5" d="M0 0" class="OQlOCXIh_29"></path></g><g opacity="1" transform="matrix(1,0,0,1,0,0)"><path stroke-linecap="round" stroke-linejoin="miter" fill-opacity="0" stroke-miterlimit="4" stroke="rgb(231,255,206)" stroke-opacity="1" stroke-width="0.5" d="M0 0" class="OQlOCXIh_30"></path></g><g opacity="1" transform="matrix(1,0,0,1,0,0)"><path stroke-linecap="round" stroke-linejoin="miter" fill-opacity="0" stroke-miterlimit="4" stroke="rgb(231,255,206)" stroke-opacity="1" stroke-width="0.5" d="M0 0" class="OQlOCXIh_31"></path></g></g><g transform="matrix(1,0,0,1,350,-66.02900695800781)" opacity="0.6" style="display: block;"><g opacity="1" transform="matrix(1,0,0,1,0,0)"><path stroke-linecap="round" stroke-linejoin="miter" fill-opacity="0" stroke-miterlimit="4" stroke="rgb(235,203,122)" stroke-opacity="1" stroke-width="1" d="M0 0" class="OQlOCXIh_32"></path></g><g opacity="1" transform="matrix(1,0,0,1,0,0)"><path stroke-linecap="round" stroke-linejoin="miter" fill-opacity="0" stroke-miterlimit="4" stroke="rgb(235,203,122)" stroke-opacity="1" stroke-width="1" d="M0 0" class="OQlOCXIh_33"></path></g><g opacity="1" transform="matrix(1,0,0,1,0,0)"><path stroke-linecap="round" stroke-linejoin="miter" fill-opacity="0" stroke-miterlimit="4" stroke="rgb(235,203,122)" stroke-opacity="1" stroke-width="1" d="M0 0" class="OQlOCXIh_34"></path></g><g opacity="1" transform="matrix(1,0,0,1,0,0)"><path stroke-linecap="round" stroke-linejoin="miter" fill-opacity="0" stroke-miterlimit="4" stroke="rgb(235,203,122)" stroke-opacity="1" stroke-width="1" d="M0 0" class="OQlOCXIh_35"></path></g><g opacity="1" transform="matrix(1,0,0,1,0,0)"><path stroke-linecap="round" stroke-linejoin="miter" fill-opacity="0" stroke-miterlimit="4" stroke="rgb(235,203,122)" stroke-opacity="1" stroke-width="1" d="M0 0" class="OQlOCXIh_36"></path></g></g></g><style data-made-with="vivus-instant">.OQlOCXIh_0{stroke-dasharray:1890 1892;stroke-dashoffset:1891;}.load .OQlOCXIh_0{animation:OQlOCXIh_draw 2500ms linear 0ms forwards;}.OQlOCXIh_1{stroke-dasharray:0 2;stroke-dashoffset:1;}.load .OQlOCXIh_1{animation:OQlOCXIh_draw 2500ms linear 0ms forwards;}.OQlOCXIh_2{stroke-dasharray:0 2;stroke-dashoffset:1;}.load .OQlOCXIh_2{animation:OQlOCXIh_draw 2500ms linear 0ms forwards;}.OQlOCXIh_3{stroke-dasharray:0 2;stroke-dashoffset:1;}.load .OQlOCXIh_3{animation:OQlOCXIh_draw 2500ms linear 0ms forwards;}.OQlOCXIh_4{stroke-dasharray:0 2;stroke-dashoffset:1;}.load .OQlOCXIh_4{animation:OQlOCXIh_draw 2500ms linear 0ms forwards;}.OQlOCXIh_5{stroke-dasharray:0 2;stroke-dashoffset:1;}.load .OQlOCXIh_5{animation:OQlOCXIh_draw 2500ms linear 0ms forwards;}.OQlOCXIh_6{stroke-dasharray:6000 6002;stroke-dashoffset:6001;}.load .OQlOCXIh_6{animation:OQlOCXIh_draw 2500ms linear 0ms forwards;}.OQlOCXIh_7{stroke-dasharray:825 827;stroke-dashoffset:826;}.load .OQlOCXIh_7{animation:OQlOCXIh_draw 2500ms linear 0ms forwards;}.OQlOCXIh_8{stroke-dasharray:408 410;stroke-dashoffset:409;}.load .OQlOCXIh_8{animation:OQlOCXIh_draw 2500ms linear 0ms forwards;}.OQlOCXIh_9{stroke-dasharray:392 394;stroke-dashoffset:393;}.load .OQlOCXIh_9{animation:OQlOCXIh_draw 2500ms linear 0ms forwards;}.OQlOCXIh_10{stroke-dasharray:64 66;stroke-dashoffset:65;}.load .OQlOCXIh_10{animation:OQlOCXIh_draw 2500ms linear 0ms forwards;}.OQlOCXIh_11{stroke-dasharray:338 340;stroke-dashoffset:339;}.load .OQlOCXIh_11{animation:OQlOCXIh_draw 2500ms linear 0ms forwards;}.OQlOCXIh_12{stroke-dasharray:413 415;stroke-dashoffset:414;}.load .OQlOCXIh_12{animation:OQlOCXIh_draw 2500ms linear 0ms forwards;}.OQlOCXIh_13{stroke-dasharray:281 283;stroke-dashoffset:282;}.load .OQlOCXIh_13{animation:OQlOCXIh_draw 2500ms linear 0ms forwards;}.OQlOCXIh_14{stroke-dasharray:187 189;stroke-dashoffset:188;}.load .OQlOCXIh_14{animation:OQlOCXIh_draw 2500ms linear 0ms forwards;}.OQlOCXIh_15{stroke-dasharray:831 833;stroke-dashoffset:832;}.load .OQlOCXIh_15{animation:OQlOCXIh_draw 2500ms linear 0ms forwards;}.OQlOCXIh_16{stroke-dasharray:0 2;stroke-dashoffset:1;}.load .OQlOCXIh_16{animation:OQlOCXIh_draw 2500ms linear 0ms forwards;}.OQlOCXIh_17{stroke-dasharray:797 799;stroke-dashoffset:798;}.load .OQlOCXIh_17{animation:OQlOCXIh_draw 2500ms linear 0ms forwards;}.OQlOCXIh_18{stroke-dasharray:676 678;stroke-dashoffset:677;}.load .OQlOCXIh_18{animation:OQlOCXIh_draw 2500ms linear 0ms forwards;}.OQlOCXIh_19{stroke-dasharray:486 488;stroke-dashoffset:487;}.load .OQlOCXIh_19{animation:OQlOCXIh_draw 2500ms linear 0ms forwards;}.OQlOCXIh_20{stroke-dasharray:786 788;stroke-dashoffset:787;}.load .OQlOCXIh_20{animation:OQlOCXIh_draw 2500ms linear 0ms forwards;}.OQlOCXIh_21{stroke-dasharray:187 189;stroke-dashoffset:188;}.load .OQlOCXIh_21{animation:OQlOCXIh_draw 2500ms linear 0ms forwards;}.OQlOCXIh_22{stroke-dasharray:0 2;stroke-dashoffset:1;}.load .OQlOCXIh_22{animation:OQlOCXIh_draw 2500ms linear 0ms forwards;}.OQlOCXIh_23{stroke-dasharray:0 2;stroke-dashoffset:1;}.load .OQlOCXIh_23{animation:OQlOCXIh_draw 2500ms linear 0ms forwards;}.OQlOCXIh_24{stroke-dasharray:0 2;stroke-dashoffset:1;}.load .OQlOCXIh_24{animation:OQlOCXIh_draw 2500ms linear 0ms forwards;}.OQlOCXIh_25{stroke-dasharray:0 2;stroke-dashoffset:1;}.load .OQlOCXIh_25{animation:OQlOCXIh_draw 2500ms linear 0ms forwards;}.OQlOCXIh_26{stroke-dasharray:0 2;stroke-dashoffset:1;}.load .OQlOCXIh_26{animation:OQlOCXIh_draw 2500ms linear 0ms forwards;}.OQlOCXIh_27{stroke-dasharray:0 2;stroke-dashoffset:1;}.load .OQlOCXIh_27{animation:OQlOCXIh_draw 2500ms linear 0ms forwards;}.OQlOCXIh_28{stroke-dasharray:0 2;stroke-dashoffset:1;}.load .OQlOCXIh_28{animation:OQlOCXIh_draw 2500ms linear 0ms forwards;}.OQlOCXIh_29{stroke-dasharray:0 2;stroke-dashoffset:1;}.load .OQlOCXIh_29{animation:OQlOCXIh_draw 2500ms linear 0ms forwards;}.OQlOCXIh_30{stroke-dasharray:0 2;stroke-dashoffset:1;}.load .OQlOCXIh_30{animation:OQlOCXIh_draw 2500ms linear 0ms forwards;}.OQlOCXIh_31{stroke-dasharray:0 2;stroke-dashoffset:1;}.load .OQlOCXIh_31{animation:OQlOCXIh_draw 2500ms linear 0ms forwards;}.OQlOCXIh_32{stroke-dasharray:0 2;stroke-dashoffset:1;}.load .OQlOCXIh_32{animation:OQlOCXIh_draw 2500ms linear 0ms forwards;}.OQlOCXIh_33{stroke-dasharray:0 2;stroke-dashoffset:1;}.load .OQlOCXIh_33{animation:OQlOCXIh_draw 2500ms linear 0ms forwards;}.OQlOCXIh_34{stroke-dasharray:0 2;stroke-dashoffset:1;}.load .OQlOCXIh_34{animation:OQlOCXIh_draw 2500ms linear 0ms forwards;}.OQlOCXIh_35{stroke-dasharray:0 2;stroke-dashoffset:1;}.load .OQlOCXIh_35{animation:OQlOCXIh_draw 2500ms linear 0ms forwards;}.OQlOCXIh_36{stroke-dasharray:0 2;stroke-dashoffset:1;}.load .OQlOCXIh_36{animation:OQlOCXIh_draw 2500ms linear 0ms forwards;}@keyframes OQlOCXIh_draw{100%{stroke-dashoffset:0;}}@keyframes OQlOCXIh_fade{0%{stroke-opacity:1;}94.02985074626866%{stroke-opacity:1;}100%{stroke-opacity:0;}}</style></svg>