<svg width="24" height="24" viewBox="0 0 24 24" fill="none" xmlns="http://www.w3.org/2000/svg">
<path fill-rule="evenodd" clip-rule="evenodd" d="M19.1924 9.07107L12.1214 2L11.0295 4.18376C10.837 4.56875 10.9124 5.03372 11.2168 5.33808L14.9498 9.07107C16.1214 10.2426 18.0209 10.2426 19.1924 9.07107ZM12.1838 20.7696L10 19.6777L17.7782 11.8996C18.9497 10.728 20.8492 10.728 22.0208 11.8996L13.3381 20.5823C13.0337 20.8867 12.5687 20.9621 12.1838 20.7696Z" fill="#69B42E"/>
<path fill-rule="evenodd" clip-rule="evenodd" d="M10.1924 9.07107L3.12134 2L2.02946 4.18376C1.83696 4.56875 1.91242 5.03372 2.21678 5.33808L5.94976 9.07107C7.12134 10.2426 9.02083 10.2426 10.1924 9.07107ZM3.18376 20.7696L1 19.6777L8.77818 11.8996C9.94975 10.728 11.8492 10.728 13.0208 11.8996L4.33808 20.5823C4.03372 20.8867 3.56875 20.9621 3.18376 20.7696Z" fill="#69B42E"/>
</svg>
