<svg width="201" height="166" viewBox="0 0 201 166" fill="none" xmlns="http://www.w3.org/2000/svg">
<g clip-path="url(#clip0)">
<path fill-rule="evenodd" clip-rule="evenodd" d="M100.665 97.4375C76.5875 61.4721 61.7137 39.2319 55.0729 28.9283C53.403 26.3621 51.7719 24.8457 53.2088 22.0462C56.2379 16.0196 62.4127 7.11574 67.3059 0.0393066C78.4904 16.6028 89.0146 32.1554 100.549 49.2633C100.549 49.2244 117.83 71.6202 100.665 97.4375Z" fill="url(#paint0_linear)"/>
<path fill-rule="evenodd" clip-rule="evenodd" d="M124.626 61.5106C124.626 61.5106 142.801 34.0602 146.18 28.889C147.85 26.3228 149.481 24.8064 148.044 22.0069C145.015 15.9803 138.84 7.07644 133.947 0C128.549 8.00959 117.52 24.2621 112.277 32.0773C107.966 38.5316 114.219 48.7963 124.626 61.5106Z" fill="url(#paint1_linear)"/>
<path d="M49.4417 112.367H46.6068H36.6262H35.6165L35.1504 113.262L17.4417 147.361L14.1407 113.845L13.9854 112.329H12.4708H2.14071H0.237793L0.509638 114.234L7.4611 163.613L7.65527 165.052H9.09217H19.0728H20.0436L20.5097 164.197L48.0437 114.817L49.4417 112.367Z" fill="url(#paint2_linear)"/>
<path d="M58.3349 112.368H56.9757L56.7038 113.69L46.3349 163.069L45.9077 165.091H47.966H78.6456H80.0048L80.2767 163.769L81.7136 156.77L82.1019 154.787H80.0437H61.131L67.8495 122.71H86.4514H87.8107L88.0825 121.388L89.5582 114.39L89.9854 112.368H87.9272H58.3349Z" fill="url(#paint3_linear)"/>
<path d="M77.0533 132.43C75.7718 132.43 74.6067 132.703 73.5193 133.247C72.5484 133.752 71.6552 134.413 70.8397 135.191C70.063 135.93 69.364 136.785 68.7815 137.679C68.1989 138.535 67.6941 139.39 67.3057 140.129L66.0242 142.54H68.7426L81.5193 142.617H82.8786L83.1504 141.295L84.6261 134.452L85.0533 132.469L82.9951 132.43H77.0533Z" fill="url(#paint4_linear)"/>
<path d="M112.393 122.827C113.52 122.01 114.918 121.621 116.626 121.621C118.024 121.621 119.5 121.738 120.976 121.971C122.49 122.205 124.16 122.593 125.947 123.177L127.189 123.565L127.85 122.477L131.655 116.295L132.743 114.506L130.762 113.845C129.403 113.379 128.16 112.99 127.034 112.679C125.869 112.368 124.743 112.134 123.655 111.979C122.568 111.823 121.52 111.707 120.51 111.629C119.5 111.551 118.452 111.512 117.364 111.512C115.189 111.512 113.054 111.784 111.034 112.368C108.976 112.951 107.073 113.806 105.325 114.934C103.578 116.1 102.024 117.578 100.782 119.366C99.5389 121.155 98.6069 123.332 98.102 125.743C97.4807 128.503 97.6749 130.992 98.5681 133.053C99.4224 134.997 100.665 136.707 102.257 138.146C103.772 139.507 105.481 140.751 107.384 141.801C109.131 142.773 110.723 143.745 112.199 144.756C113.52 145.65 114.607 146.661 115.345 147.672C115.927 148.489 116.083 149.383 115.888 150.549C115.772 151.21 115.5 151.793 115.073 152.377C114.607 152.999 113.986 153.582 113.287 154.049C112.549 154.554 111.733 154.943 110.801 155.215C109.908 155.487 108.898 155.643 107.85 155.643C106.257 155.643 104.471 155.448 102.529 155.021C100.626 154.632 98.6069 153.854 96.5875 152.765L95.1894 152.027L94.3739 153.349L90.4904 159.686L89.5583 161.203L91.1506 162.019C94.102 163.536 96.8593 164.585 99.4613 165.13C102.024 165.674 104.354 165.946 106.374 165.946C109.092 165.946 111.655 165.635 114.063 164.974C116.471 164.313 118.646 163.341 120.549 162.097C122.49 160.814 124.16 159.259 125.442 157.392C126.762 155.526 127.694 153.349 128.199 150.977C128.821 148.022 128.665 145.417 127.772 143.278C126.918 141.218 125.675 139.39 124.121 137.874C122.607 136.435 120.898 135.152 118.995 134.025C117.248 133.014 115.617 132.003 114.141 131.031C112.782 130.136 111.733 129.164 110.918 128.192C110.335 127.454 110.141 126.598 110.374 125.548C110.723 124.46 111.345 123.565 112.393 122.827Z" fill="url(#paint5_linear)"/>
<path d="M179.655 114.39L180.083 112.368H178.024H164.859H161.209H142.529H141.17L140.898 113.69L139.422 120.688L138.995 122.71H141.053H151.888L143.461 163.108L143.034 165.13H145.092H154.723H156.083L156.354 163.808L164.898 122.71H176.471H177.83L178.102 121.388L179.655 114.39Z" fill="url(#paint6_linear)"/>
<path d="M198.995 112.368H189.558H188.199L187.927 113.69L177.558 163.069L177.131 165.091H179.189H188.626H189.985L190.257 163.769L200.626 114.39L201.053 112.368H198.995Z" fill="url(#paint7_linear)"/>
</g>
<defs>
<linearGradient id="paint0_linear" x1="61.9822" y1="16.1829" x2="120.684" y2="102.756" gradientUnits="userSpaceOnUse">
<stop stop-color="#EBCB7A"/>
<stop offset="0.6622" stop-color="#B79245"/>
</linearGradient>
<linearGradient id="paint1_linear" x1="137.703" y1="6.8022" x2="125.22" y2="43.1063" gradientUnits="userSpaceOnUse">
<stop stop-color="#EBCB7A"/>
<stop offset="0.6613" stop-color="#B79245"/>
</linearGradient>
<linearGradient id="paint2_linear" x1="24.8763" y1="110.75" x2="23.6508" y2="163.016" gradientUnits="userSpaceOnUse">
<stop stop-color="#EBCB7A"/>
<stop offset="0.6622" stop-color="#B79245"/>
</linearGradient>
<linearGradient id="paint3_linear" x1="68.5911" y1="111.779" x2="67.3657" y2="164.044" gradientUnits="userSpaceOnUse">
<stop stop-color="#EBCB7A"/>
<stop offset="0.6622" stop-color="#B79245"/>
</linearGradient>
<linearGradient id="paint4_linear" x1="84.7548" y1="134.807" x2="67.9983" y2="142.87" gradientUnits="userSpaceOnUse">
<stop stop-color="#EBCB7A"/>
<stop offset="0.6622" stop-color="#B79245"/>
</linearGradient>
<linearGradient id="paint5_linear" x1="111.791" y1="112.809" x2="110.565" y2="165.074" gradientUnits="userSpaceOnUse">
<stop stop-color="#EBCB7A"/>
<stop offset="0.6622" stop-color="#B79245"/>
</linearGradient>
<linearGradient id="paint6_linear" x1="159.609" y1="113.947" x2="158.384" y2="166.213" gradientUnits="userSpaceOnUse">
<stop stop-color="#EBCB7A"/>
<stop offset="0.6622" stop-color="#B79245"/>
</linearGradient>
<linearGradient id="paint7_linear" x1="189.646" y1="114.668" x2="188.42" y2="166.934" gradientUnits="userSpaceOnUse">
<stop stop-color="#EBCB7A"/>
<stop offset="0.6622" stop-color="#B79245"/>
</linearGradient>
<clipPath id="clip0">
<rect width="201" height="166" fill="white"/>
</clipPath>
</defs>
</svg>
