<svg width="1440" height="1133" viewBox="0 0 1440 1133" fill="none" xmlns="http://www.w3.org/2000/svg">
<path fill-rule="evenodd" clip-rule="evenodd" d="M1440 0H0V1133H1440V0ZM996.04 962.678C789.823 653.79 662.601 462.701 605.658 374.352C603.5 371.001 601.347 367.862 599.291 364.865L599.288 364.86C587.787 348.093 579.31 335.734 589.693 315.086C615.769 263.365 668.455 186.736 710.563 126L737.607 166.144C823.546 293.71 905.794 415.799 995.242 548.646C995.242 548.646 1143.02 741.071 996.04 962.678ZM1200.97 654.633C1200.97 654.633 1356.6 418.679 1385.48 374.481C1387.54 371.33 1389.58 368.365 1391.54 365.525L1391.55 365.518C1403.28 348.527 1411.9 336.048 1401.39 315.184C1375.37 263.437 1322.9 186.767 1280.63 126C1266.56 146.936 1248.05 174.416 1227.85 204.413L1227.52 204.9C1181.35 273.456 1126.42 355.021 1095.3 401.641C1058.41 456.93 1112.05 545.225 1200.97 654.633Z" fill="#050703"/>
</svg>
