<svg width="547" height="558" viewBox="0 0 547 558" fill="none" xmlns="http://www.w3.org/2000/svg">
<path fill-rule="evenodd" clip-rule="evenodd" d="M13.7533 165.505C51.663 224.382 136.362 351.726 273.652 557.572C371.504 409.89 273.12 281.656 273.12 281.656C213.594 193.162 158.858 111.831 101.669 26.8572C95.6738 17.949 89.6515 9.00073 83.594 0C55.5603 40.475 20.4849 91.5417 3.1244 126.009C-3.78811 139.769 1.85551 148.005 9.51222 159.179C10.8816 161.178 12.3154 163.27 13.7533 165.505ZM533.175 165.439C513.975 194.866 410.508 351.964 410.508 351.964C351.384 279.12 315.725 220.333 340.249 183.522C360.943 152.482 397.463 98.1746 428.159 52.5293C441.674 32.432 454.059 14.0138 463.468 0.000136784C491.572 40.459 526.458 91.5053 543.758 125.959C550.743 139.85 545.013 148.158 537.213 159.471C535.908 161.363 534.546 163.339 533.175 165.439Z" fill="url(#paint0_linear)"/>
<defs>
<linearGradient id="paint0_linear" x1="273.453" y1="0" x2="273.453" y2="557.572" gradientUnits="userSpaceOnUse">
<stop stop-color="#EBCB7A"/>
<stop offset="0.614583" stop-color="#B79245"/>
</linearGradient>
</defs>
</svg>
